<svg width="31" height="16" viewBox="0 0 31 16" fill="none" xmlns="http://www.w3.org/2000/svg">
<path d="M3.63281 16H0.539063L6.17188 -4.76837e-07H9.75L15.3906 16H12.2969L8.02344 3.28125H7.89844L3.63281 16ZM3.73438 9.72656H12.1719V12.0547H3.73438V9.72656ZM22.9199 16H17.498V-4.76837e-07H23.0293C24.6178 -4.76837e-07 25.9824 0.320312 27.123 0.960938C28.2689 1.59635 29.1491 2.51042 29.7637 3.70312C30.3783 4.89583 30.6855 6.32292 30.6855 7.98437C30.6855 9.65104 30.3757 11.0833 29.7559 12.2812C29.1413 13.4792 28.2533 14.3984 27.0918 15.0391C25.9355 15.6797 24.5449 16 22.9199 16ZM20.3965 13.4922H22.7793C23.8939 13.4922 24.8236 13.2891 25.5684 12.8828C26.3132 12.4714 26.873 11.8594 27.248 11.0469C27.623 10.2292 27.8105 9.20833 27.8105 7.98437C27.8105 6.76042 27.623 5.74479 27.248 4.9375C26.873 4.125 26.3184 3.51823 25.584 3.11719C24.8548 2.71094 23.9486 2.50781 22.8652 2.50781H20.3965V13.4922Z" fill="#118CFF"/>
</svg>
