<svg width="50" height="50" viewBox="0 0 50 50" fill="none" xmlns="http://www.w3.org/2000/svg">
<rect width="50" height="50" fill="#0F1C35"/>
<path d="M7.03835 32L2.87642 17.4545H6.2358L8.64347 27.5611H8.7642L11.4205 17.4545H14.2969L16.946 27.5824H17.0739L19.4815 17.4545H22.8409L18.679 32H15.6818L12.9119 22.4901H12.7983L10.0355 32H7.03835ZM23.4869 32V17.4545H33.288V19.9901H26.5621V23.456H32.7837V25.9915H26.5621V29.4645H33.3164V32H23.4869ZM34.733 32V17.4545H40.5568C41.6269 17.4545 42.5194 17.6132 43.2344 17.9304C43.9493 18.2476 44.4867 18.688 44.8466 19.2514C45.2064 19.8101 45.3864 20.4541 45.3864 21.1832C45.3864 21.7514 45.2727 22.2509 45.0455 22.6818C44.8182 23.108 44.5057 23.4583 44.108 23.733C43.715 24.0028 43.2652 24.1946 42.7585 24.3082V24.4503C43.3125 24.474 43.831 24.6302 44.3139 24.919C44.8016 25.2079 45.197 25.6127 45.5 26.1335C45.803 26.6496 45.9545 27.2652 45.9545 27.9801C45.9545 28.7519 45.7628 29.4408 45.3793 30.0469C45.0005 30.6482 44.4394 31.1241 43.696 31.4744C42.9527 31.8248 42.0365 32 40.9474 32H34.733ZM37.8082 29.4858H40.3153C41.1723 29.4858 41.7973 29.3224 42.1903 28.9957C42.5833 28.6643 42.7798 28.224 42.7798 27.6747C42.7798 27.2723 42.6828 26.9171 42.4886 26.6094C42.2945 26.3016 42.0175 26.0601 41.6577 25.8849C41.3026 25.7098 40.8788 25.6222 40.3864 25.6222H37.8082V29.4858ZM37.8082 23.5412H40.0881C40.5095 23.5412 40.8835 23.4678 41.2102 23.321C41.5417 23.1695 41.8021 22.9564 41.9915 22.6818C42.1856 22.4072 42.2827 22.0781 42.2827 21.6946C42.2827 21.169 42.0956 20.7453 41.7216 20.4233C41.3523 20.1013 40.8267 19.9403 40.1449 19.9403H37.8082V23.5412Z" fill="#FE2748"/>
</svg>
